# xmcd
#
# Track frame offsets:
# 150
# 12967
# 26184
# 43074
# 56023
# 71333
# 86577
# 101184
# 116246
# 130558
# 145080
# 158932
# 170622
# 191764
# 206856
# 222098
# 236542
# 252104
# 266541
# 278911
# 291223
#
# Disc length: 4113 seconds
#
#
# Revision: 0
# Processed by: cddbd v1.5.1PL0 Copyright (c) Steve Scherf et al.
# Submitted via: FreeRIP 2.942 
#
DISCID=40100f15
DTITLE=Lean Rimes - Lean Rimes
DYEAR=1900
DGENRE=Country
TTITLE0=Blue
TTITLE1=Hurt Me
TTITLE2=One Way Ticket
TTITLE3=My Baby
TTITLE4=Honestly
TTITLE5=The Light In Your Eyes
TTITLE6=Talk To Me
TTITLE7=I´ll Get Even With You
TTITLE8=Cattle Call
TTITLE9=Good Lookin´ Man
TTITLE10=Fade To Blue
TTITLE11=Cowboy´s Sweethaert
TTITLE12=I Will Always Love You
TTITLE13=Blue Moon Of Kentucky
TTITLE14=River Of Love
TTITLE15=The Rest Is History
TTITLE16=Broken Wing
TTITLE17=Yesterday
TTITLE18=Sure Thing
TTITLE19=Share My Love
TTITLE20=Unchained Melody
EXTD=
EXTT0=
EXTT1=
EXTT2=
EXTT3=
EXTT4=
EXTT5=
EXTT6=
EXTT7=
EXTT8=
EXTT9=
EXTT10=
EXTT11=
EXTT12=
EXTT13=
EXTT14=
EXTT15=
EXTT16=
EXTT17=
EXTT18=
EXTT19=
EXTT20=
PLAYORDER=
